<svg xmlns="http://www.w3.org/2000/svg" viewBox="0 0 460 150" width="460" height="150" role="img" aria-label="Top languages by bytes"><title>Top languages by bytes</title><style>.bg{fill:#E8F1F2}.fg{fill:#0B1E2D}.mut{fill:#6E8CA0}@media (prefers-color-scheme: dark){.bg{fill:#0B1E2D}.fg{fill:#E8F1F2}}</style><text x="6.0" y="20.0" class="fg" font-family="ui-monospace, 'JetBrains Mono', 'SF Mono', Menlo, Consolas, monospace" font-size="12">Jupyter Notebook</text><rect x="118" y="9" width="250" height="10" rx="2" fill="#5FA8D3" opacity="0.16"/><rect x="118" y="9" width="206.3" height="10" rx="2" fill="#5FA8D3"/><text x="378.0" y="20.0" class="mut" font-family="ui-monospace, 'JetBrains Mono', 'SF Mono', Menlo, Consolas, monospace" font-size="11">82.5%</text><text x="6.0" y="42.0" class="fg" font-family="ui-monospace, 'JetBrains Mono', 'SF Mono', Menlo, Consolas, monospace" font-size="12">Python</text><rect x="118" y="31" width="250" height="10" rx="2" fill="#5FA8D3" opacity="0.16"/><rect x="118" y="31" width="28.7" height="10" rx="2" fill="#5FA8D3"/><text x="378.0" y="42.0" class="mut" font-family="ui-monospace, 'JetBrains Mono', 'SF Mono', Menlo, Consolas, monospace" font-size="11">11.5%</text><text x="6.0" y="64.0" class="fg" font-family="ui-monospace, 'JetBrains Mono', 'SF Mono', Menlo, Consolas, monospace" font-size="12">JavaScript</text><rect x="118" y="53" width="250" height="10" rx="2" fill="#5FA8D3" opacity="0.16"/><rect x="118" y="53" width="7.2" height="10" rx="2" fill="#5FA8D3"/><text x="378.0" y="64.0" class="mut" font-family="ui-monospace, 'JetBrains Mono', 'SF Mono', Menlo, Consolas, monospace" font-size="11"> 2.9%</text><text x="6.0" y="86.0" class="fg" font-family="ui-monospace, 'JetBrains Mono', 'SF Mono', Menlo, Consolas, monospace" font-size="12">HTML</text><rect x="118" y="75" width="250" height="10" rx="2" fill="#5FA8D3" opacity="0.16"/><rect x="118" y="75" width="4.1" height="10" rx="2" fill="#5FA8D3"/><text x="378.0" y="86.0" class="mut" font-family="ui-monospace, 'JetBrains Mono', 'SF Mono', Menlo, Consolas, monospace" font-size="11"> 1.7%</text><text x="6.0" y="108.0" class="fg" font-family="ui-monospace, 'JetBrains Mono', 'SF Mono', Menlo, Consolas, monospace" font-size="12">CSS</text><rect x="118" y="97" width="250" height="10" rx="2" fill="#5FA8D3" opacity="0.16"/><rect x="118" y="97" width="3.5" height="10" rx="2" fill="#5FA8D3"/><text x="378.0" y="108.0" class="mut" font-family="ui-monospace, 'JetBrains Mono', 'SF Mono', Menlo, Consolas, monospace" font-size="11"> 1.4%</text><text x="6.0" y="130.0" class="fg" font-family="ui-monospace, 'JetBrains Mono', 'SF Mono', Menlo, Consolas, monospace" font-size="12">TypeScript</text><rect x="118" y="119" width="250" height="10" rx="2" fill="#5FA8D3" opacity="0.16"/><rect x="118" y="119" width="2.0" height="10" rx="2" fill="#5FA8D3"/><text x="378.0" y="130.0" class="mut" font-family="ui-monospace, 'JetBrains Mono', 'SF Mono', Menlo, Consolas, monospace" font-size="11"> 0.0%</text></svg>